<svg width="512px" height="512px" viewBox="0 0 512 512" xmlns="http://www.w3.org/2000/svg">
    <style>
        path {
            fill: #D4396F;
        }
        @media (prefers-color-scheme: dark) {
            path {
                fill: white;
            }
        }
    </style>
    <g id="icon-alt" stroke="none" stroke-width="1" fill="none" fill-rule="evenodd">
        <path d="M405.318287,43.9240088 L229.447038,219.692846 L229.129384,220.016068 C219.600025,229.888715 219.728187,245.926928 229.496704,255.689452 C239.372567,265.559256 255.666743,265.58171 265.515408,255.739088 L265.515408,255.739088 L454.934561,66.4339044 C455.654422,66.944453 456.370916,67.4624906 457.083941,67.9880251 C489.155055,92.5905583 509.051065,129.747928 511.698127,169.984332 C514.345189,210.220736 499.487436,249.646873 470.913864,278.208364 L291.637085,456.963684 C281.998529,466.577097 268.908992,471.964121 255.269509,471.930981 C241.630027,471.964121 228.54049,466.577097 218.901934,456.963684 L43.0399504,281.780069 C14.9772021,253.521726 -0.523917305,215.224788 0.0135233356,175.479331 C0.283864687,139.062241 15.0898853,104.248997 41.1643338,78.7218524 C58.9962211,61.2642575 81.0959275,49.1310896 104.979011,43.3205674 L103.393296,188.413718 L103.392764,188.850223 C103.485475,203.219445 114.471529,214.053081 128.920284,213.926168 C135.788379,213.864184 142.253862,210.804179 147.017544,206.043419 C151.781227,201.282658 154.843111,194.821143 154.904009,187.957262 L154.904009,187.957262 L156.517941,40.3524701 C187.300995,43.9722214 216.150926,57.8748267 238.19553,80.0637889 L255.269509,97.0719069 L269.270172,83.1252502 C305.462579,46.1170633 357.495779,32.5112864 405.318287,43.9240088 Z M189.383558,298.482508 C156.776921,265.895877 101.415468,266.076759 67.7533791,299.718195 C66.6304364,300.840448 65.5455931,301.986601 64.4987674,303.155056 L64.4987674,303.155056 L100.154538,338.673367 C100.923531,337.742598 101.74511,336.838517 102.619232,335.964932 C116.901565,321.691361 139.330008,321.436254 153.290898,335.388579 C167.251788,349.340904 166.996525,371.755586 152.714191,386.029156 C151.867711,386.875118 150.992616,387.671837 150.092365,388.419275 L150.092365,388.419275 L185.755111,423.944737 C186.84967,422.953763 187.926094,421.930056 188.98318,420.873618 C222.645269,387.232182 223.244295,332.322472 189.383558,298.482508 Z M416.813315,332.150255 L297.748923,333.463775 L297.312874,333.470971 C282.956735,333.817855 271.939713,344.97098 271.810706,359.384957 C271.682652,373.94453 282.724495,384.979599 297.293006,384.850502 L297.293006,384.850502 L364.704113,384.107022 L416.813315,332.150255 Z" id="favicon" fill-rule="nonzero"></path>
    </g>
</svg>