<?xml version="1.0" encoding="UTF-8"?>
<svg width="512px" height="432px" viewBox="0 0 512 432" version="1.1" xmlns="http://www.w3.org/2000/svg" xmlns:xlink="http://www.w3.org/1999/xlink">
    <title>icon white copy</title>
    <g id="icon-white-copy" stroke="none" stroke-width="1" fill="none" fill-rule="evenodd">
        <path d="M405.318287,3.92400879 L229.447038,179.692846 L229.129384,180.016068 C219.600025,189.888715 219.728187,205.926928 229.496704,215.689452 C239.372567,225.559256 255.666743,225.58171 265.515408,215.739088 L265.515408,215.739088 L454.934561,26.4339044 C455.654422,26.944453 456.370916,27.4624906 457.083941,27.9880251 C489.155055,52.5905583 509.051065,89.7479285 511.698127,129.984332 C514.345189,170.220736 499.487436,209.646873 470.913864,238.208364 L291.637085,416.963684 C281.998529,426.577097 268.908992,431.964121 255.269509,431.930981 C241.630027,431.964121 228.54049,426.577097 218.901934,416.963684 L43.0399504,241.780069 C14.9772021,213.521726 -0.523917305,175.224788 0.0135233356,135.479331 C0.283864687,99.0622409 15.0898853,64.2489966 41.1643338,38.7218524 C58.9962211,21.2642575 81.0959275,9.13108957 104.979011,3.32056743 L103.393296,148.413718 L103.392764,148.850223 C103.485475,163.219445 114.471529,174.053081 128.920284,173.926168 C135.788379,173.864184 142.253862,170.804179 147.017544,166.043419 C151.781227,161.282658 154.843111,154.821143 154.904009,147.957262 L154.904009,147.957262 L156.517941,0.352470067 C187.300995,3.97222143 216.150926,17.8748267 238.19553,40.0637889 L255.269509,57.0719069 L269.270172,43.1252502 C305.462579,6.11706333 357.495779,-7.48871359 405.318287,3.92400879 Z M189.383558,258.482508 C156.776921,225.895877 101.415468,226.076759 67.7533791,259.718195 C66.6304364,260.840448 65.5455931,261.986601 64.4987674,263.155056 L64.4987674,263.155056 L100.154538,298.673367 C100.923531,297.742598 101.74511,296.838517 102.619232,295.964932 C116.901565,281.691361 139.330008,281.436254 153.290898,295.388579 C167.251788,309.340904 166.996525,331.755586 152.714191,346.029156 C151.867711,346.875118 150.992616,347.671837 150.092365,348.419275 L150.092365,348.419275 L185.755111,383.944737 C186.84967,382.953763 187.926094,381.930056 188.98318,380.873618 C222.645269,347.232182 223.244295,292.322472 189.383558,258.482508 Z M416.813315,292.150255 L297.748923,293.463775 L297.312874,293.470971 C282.956735,293.817855 271.939713,304.97098 271.810706,319.384957 C271.682652,333.94453 282.724495,344.979599 297.293006,344.850502 L297.293006,344.850502 L364.704113,344.107022 L416.813315,292.150255 Z" id="Combined-Shape" fill="#FFFFFF" fill-rule="nonzero"></path>
    </g>
</svg>